<?xml version="1.0" standalone="no"?><!DOCTYPE svg PUBLIC "-//W3C//DTD SVG 1.1//EN" "http://www.w3.org/Graphics/SVG/1.1/DTD/svg11.dtd"><svg class="icon" width="48px" height="48.00px" viewBox="0 0 1024 1024" version="1.1" xmlns="http://www.w3.org/2000/svg"><path fill="#2c2c2c" d="M938.666667 85.333333a42.666667 42.666667 0 0 1 42.666666 42.666667v597.333333a42.666667 42.666667 0 0 1-42.666666 42.666667l-284.8 0.042667c-22.954667 35.562667-49.386667 65.28-79.36 89.024-53.376 42.346667-118.997333 69.376-196.330667 81.237333a32 32 0 0 1-36.693333-28.736L341.333333 906.666667l-0.021333-138.666667H85.333333a42.666667 42.666667 0 0 1-42.666666-42.666667V128a42.666667 42.666667 0 0 1 42.666666-42.666667h853.333334z m-21.333334 64H106.666667v554.666667h298.666666v163.84c47.146667-11.328 87.786667-29.802667 122.154667-55.338667l7.253333-5.568c31.808-25.237333 59.370667-59.456 82.56-102.912H618.666667V704h298.666666V149.333333zM394.666667 384a32 32 0 0 1 0 64h-128a32 32 0 0 1 0-64h128z m362.666666 0a32 32 0 0 1 0 64h-128a32 32 0 0 1 0-64h128z"  /></svg>